<?xml version="1.0"?><svg width="600" height="480" xmlns="http://www.w3.org/2000/svg">
 <!-- Created with SVG-edit - http://svg-edit.googlecode.com/ -->
 <title>taco mae</title>
 <g>
  <title>Layer 1</title>
  <path id="svg_22" d="m471.92804,242.277802c0,0 10.988983,0.998993 10.588989,0.479004c-0.399017,-0.518982 6.393982,3.516998 9.390991,2.518005c2.997009,-0.998993 6.992004,-4.996002 8.591003,-10.51001c1.598999,-5.513977 -3.596985,-8.471985 -6.993011,-9.98999c-3.395996,-1.518005 -4.595001,-8.471008 -4.994995,-8.990997c-0.398987,-0.519012 9.391022,1.518982 4.395996,-7.472015c-4.994995,-8.990997 -7.991974,-4.994995 -8.391998,-5.514984c-0.398987,-0.519012 -7.592987,0.518982 -8.990997,-1.998016c-1.39798,-2.516998 7.393005,-3.475983 2.39801,-9.470001c-4.994995,-5.993988 -10.989014,-0.998993 -11.389008,-1.518982c-0.398987,-0.519012 -4.595001,9.510986 -4.994995,8.990997c-0.398987,-0.519012 1.39801,1.518005 -3.996002,7.992004c-5.394012,6.473999 8.391998,6.514008 7.992004,5.993988c-0.398987,-0.518982 10.389984,4.515991 10.389984,4.515991c0,0 -0.001007,4.993988 -1.398987,8.471008c-1.39798,3.47702 -7.59201,3.516998 -7.992004,2.997009c-0.398987,-0.519012 -1.597992,7.513 -1.997986,6.992981c-0.399017,-0.518982 7.393005,6.514008 7.393005,6.514008z" stroke-linecap="null" stroke-linejoin="null" stroke-dasharray="null" stroke-width="5" stroke="#000000" fill="#07703a"/>
  <path id="svg_23" d="m451.947968,314.026306c0,0 15.587219,2.227417 15.141479,1.647736c-0.444702,-0.578613 11.579468,-4.988922 11.579468,-4.988922c0,0 3.340088,-8.90979 2.226746,-12.250977c-1.113403,-3.341095 -4.45462,-11.138245 -7.126038,-11.716919c-2.671387,-0.578613 -9.574524,5.034637 -10.020325,4.454926c-0.444672,-0.578613 -9.574524,-3.875214 -10.020355,-4.454926c-0.444672,-0.578613 1.559143,16.171814 1.559143,16.171814c0,0 -3.340118,11.137268 -3.340118,11.137268z" stroke-linecap="null" stroke-linejoin="null" stroke-dasharray="null" stroke-width="5" stroke="#000000" fill="#6b0c0c"/>
  <path id="svg_24" d="m476.923157,277.242737c0.453918,0.280212 11.987976,5.994019 11.987976,5.994019c0,0 9.990082,-6.993042 9.990082,-6.993042c0,0 2.996918,-14.985016 2.996918,-14.985016c0,0 -0.998962,-7.99202 -2.397644,-10.509476c-1.398682,-2.517456 -6.593292,-4.475525 -6.99295,-4.994995c-0.399689,-0.51947 -7.592346,-0.479523 -7.992035,-0.998993c-0.399628,-0.51947 -9.590363,5.514465 -9.98999,4.994995c-0.399719,-0.51947 -1.598389,10.509476 -1.998047,9.990005c-0.399658,-0.51944 10.38974,6.513489 9.990082,5.993988" stroke-linecap="null" stroke-linejoin="null" stroke-dasharray="null" stroke-width="5" stroke="#000000" fill="#6b156b"/>
  <path id="svg_3" d="m155.860138,231.163834c-8,3 1,-15 -7,-12c-8,3 6,-10 6,-10c0,0 0,-4 -8,-7c-8,-3 9,-8 9,-8c0,0 0,-11 0,-14c0,-3 17,1 17,1c0,0 1,-8 2,-15c1,-7 12,-2 12,-2c0,0 -1,-12 -1,-15c0,-3 6,-2 13,0c7,2 13,-6 16,-9c3,-3 9,0 10,3c1,3 -5,9 -5,9c0,0 7,6 3,11c-4,5 -23,20 -23,20c0,0 -23,19 -23,19c0,0 -11,14 -11,14c0,0 -2,12 -10,15z" stroke-linecap="null" stroke-linejoin="null" stroke-dasharray="null" stroke-width="5" stroke="#000000" fill="#6ead2e"/>
  <path id="svg_4" d="m212.864151,137.162842c0,0 -4,-14 -4,-14c0,0 10,-9 10,-9c0,0 8,-7.000015 10,-4c2,3 10,11 14,10c4,-1 6,-4 7,-9c1,-5.000015 6,0 9.000015,-5.000015c3,-5 8,6.000015 10,6.000015c2,0 8,-6.000015 8,-6.000015c0,0 4,-10 7,-10c3,0 8,5 10,5c2,0 13,-4 10,-4c-3,0 9,4 9,6c0,2 -5,13.000015 -5,13.000015c0,0 -7,6 -7,6c0,0 -9,-2 -12,-2c-3,0 3,10 -1,10c-4,0 -12,-1 -12,-1c0,0 -8,4 -8,4c0,0 -20.000015,2 -20.000015,2c0,0 -15,2 -15,2c0,0 -8,4 -8,4c0,0 -12,-4 -12,-4z" stroke-linecap="null" stroke-linejoin="null" stroke-dasharray="null" stroke-width="5" stroke="#000000" fill="#3f7f00"/>
  <path id="svg_5" d="m223.861145,162.164825c0,0 -5,-10 -4,-12c1,-2 4,-7 4,-7c0,0 13,-4 13,-4c0,0 13,-4 13,-4c0,0 11,-2 11,-2c0,0 8,2 8,2c0,0 -3,8 -3,8c0,0 0,7 0,7c0,0 -20,6 -20,6c0,0 -13,5 -13,5c0,0 -9,1 -9,1z" stroke-linecap="null" stroke-linejoin="null" stroke-dasharray="null" stroke-width="5" stroke="#000000" fill="#7f0000"/>
  <path transform="rotate(3.96743 404.7 141.306)" id="svg_13" d="m341.540741,126.687042c1,-1.999023 2.498016,-8.99585 2.298004,-9.255707c-0.200012,-0.259918 4.197937,-4.237885 6.196991,-4.237885c1.999023,0 7.497009,4.997498 7.497009,4.997498c0,0 3.997955,1.499268 3.797974,1.23938c-0.199982,-0.259888 6.196991,-7.736237 6.196991,-7.736237c0,0 5.995728,-3.997955 8.495026,-3.997955c2.499237,0 6.496979,4.997498 6.496979,4.997498c0,0 7.496002,7.996002 8.29599,7.236389c0.799011,-0.759583 7.696198,-1.239288 9.994965,-1.499207c2.298828,-0.259926 7.696014,5.757195 6.49704,5.997192c-1.199982,0.23999 -2.799042,8.256058 -0.500031,7.996048c2.299011,-0.26001 10.695007,-0.740051 10.494995,-1c-0.199951,-0.26001 6.196228,-6.236282 10.494019,-2.998062c4.297791,3.238297 5.697998,7.756058 5.497986,7.496048c-0.199951,-0.26001 1.199036,7.755981 0.999023,7.495972c-0.200012,-0.26001 10.195007,-1.238983 11.994019,-1.998962c1.79895,-0.759033 10.695007,2.25946 10.494995,2.998962c-0.200012,0.739532 1.198975,7.256042 1.198975,7.256042c0,0 -2.497986,6.996948 -2.697998,6.736938c-0.200012,-0.259949 9.695007,2.758545 9.695007,3.758057c0,0.999451 4.497986,3.497955 2.499023,5.496948c-1.999023,1.999023 -3.998047,3.998047 -4.197998,3.738037c-0.200012,-0.26001 -6.296997,3.757996 -6.497009,3.498962c-0.200012,-0.26001 -6.296997,-3.238953 -6.497009,-3.498962c-0.200012,-0.26001 -6.796021,0.26001 -6.996033,0c-0.199951,-0.26001 -6.296997,-1.739014 -6.496948,-1.999023c-0.200012,-0.259949 1.698975,-7.235962 1.498962,-7.495972c-0.200012,-0.26001 -3.297974,-7.735992 -3.497986,-7.996033c-0.200012,-0.26001 -5.796997,1.759033 -5.997009,1.499023c-0.200012,-0.259979 -4.297974,5.757019 -4.497986,5.497986c-0.199982,-0.26001 0.200012,5.756989 -2.997986,5.497009c-3.199036,-0.259979 -7.296997,-3.738037 -7.497009,-3.998016c-0.200043,-0.259949 -8.295044,-1.738983 -8.494995,-1.998993c-0.200012,-0.259979 -6.796997,-1.739014 -6.99704,-1.999023c-0.199951,-0.259949 -8.295959,-4.737976 -8.495941,-4.997986c-0.200012,-0.259979 0.199982,-5.737 0,-5.997009c-0.200012,-0.259949 4.197968,-1.23999 4.197968,-4.237976c0,-2.998993 -2.997986,-4.996979 -3.197998,-5.257019c-0.199982,-0.259949 -6.296967,-4.237976 -6.296967,-4.237976c0,0 -7.996033,2.499023 -8.195984,2.239014c-0.200012,-0.26001 -7.296021,-8.736038 -7.496033,-8.995041c-0.199982,-0.260017 -5.796967,5.257034 -5.997009,4.997055c-0.199982,-0.26001 -4.297974,4.257996 -4.497986,3.997986c-0.199982,-0.26001 -8.29599,-0.23999 -8.495972,-0.500031c-0.200012,-0.259979 -3.798035,-5.736984 -3.998047,-5.996994c-0.199951,-0.26001 -5.296967,-0.739014 -4.296967,-2.737976z" stroke-linecap="null" stroke-linejoin="null" stroke-dasharray="null" stroke-width="5" stroke="#000000" fill="#59a80a"/>
  <path id="svg_18" d="m402.444336,170.929108c0.374023,0.175018 2.998993,-10.986969 0,-14.984985c-2.998993,-3.998016 -12.986969,-7.992004 -13.386963,-8.511993c-0.399017,-0.519012 -15.084015,-5.476013 -18.981018,-4.995026c-3.897003,0.481018 -8.591003,9.511017 -8.990997,8.990997c-0.398987,-0.518982 0.39801,8.511017 1.998016,7.992004c1.600006,-0.518982 19.380981,5.515015 19.380981,5.515015c0,0 19.97998,5.993988 19.97998,5.993988z" stroke-linecap="null" stroke-linejoin="null" stroke-dasharray="null" stroke-width="5" stroke="#000000" fill="#701570"/>
  <path id="svg_21" d="m394.649963,174.677887c-5.330017,-0.665985 -1.66803,-22.645996 4.994995,-15.983978c6.662994,6.661987 8.325012,-9.662018 10.590027,0.478973c2.264984,10.140991 8.390991,4.516022 7.991943,3.996002c-0.399994,-0.518982 7.392029,-12.46698 6.992004,-12.987c-0.398987,-0.518982 7.393005,-1.480988 8.992004,5.994019c1.598999,7.475006 -5.594971,14.504974 -2.664001,18.649994c2.93103,4.144989 13.05304,-5.143005 12.653992,-5.662994c-0.399963,-0.519012 11.722015,-2.812012 9.990051,3.995972c-1.732025,6.808014 -3.597046,7.513 -3.996002,6.993011c-0.399994,-0.519012 0.067963,4.846008 -2.99704,8.990997c-3.064972,4.14502 13.385986,1.519012 12.987,0.998993c-0.399994,-0.518982 11.388977,2.183014 6.992981,6.993011c-4.395996,4.809998 -5.260986,3.847015 -6.992981,9.98999c-1.731964,6.143005 4.39502,8.512024 3.996033,7.992004c-0.400024,-0.518982 11.388977,0.52002 8.990967,0c-2.398987,-0.518982 15.387024,3.182007 6.992981,7.992004c-8.393982,4.809998 -6.593994,6.514008 -6.992981,5.993988c-0.400024,-0.518982 -0.930969,-0.814972 -5.994019,5.994019c-5.062958,6.80899 4.394043,0.515991 9.990082,7.992004c5.595917,7.475983 -4.596039,7.513 -4.995087,6.992981c-0.399963,-0.518982 -2.596985,6.845001 -2.996948,8.990997c-0.400024,2.146027 11.388,7.51297 10.988953,6.993011c-0.399963,-0.518982 5.39502,6.179993 2.99704,6.993042c-2.399017,0.812927 -9.256989,1.516968 -10.989044,4.994934c-1.731964,3.478027 3.730042,10.51001 0,9.98999c-3.730957,-0.518982 -9.588989,2.184021 -11.987976,2.99707c-2.39801,0.813965 -2.597992,-22.457031 -2.997009,-22.977051c-0.399994,-0.518982 -4.595947,-18.460999 -4.994995,-18.980988c-0.399963,-0.519012 -5.594971,-18.460999 -5.993958,-18.980988c-0.399994,-0.519012 -7.593018,-14.464996 -7.993042,-14.985016c-0.398987,-0.518982 -10.588989,-14.464996 -10.988007,-14.984985c-0.399994,-0.519012 -12.587982,-14.464996 -12.986969,-14.985016c-0.400024,-0.518982 -10.589996,-7.471985 -10.988983,-7.992004c-0.399994,-0.518982 -3.261993,-1.810974 -8.59201,-2.47699z" stroke-linecap="null" stroke-linejoin="null" stroke-dasharray="null" stroke-width="5" stroke="#000000" fill="#3f7f00"/>
  <path id="svg_2" d="m155.863998,232.162003c3,-8 17,-30 17,-30c0,0 32,-25 32,-25c0,0 44,-24 44,-24c0,0 28.000015,-7 33.000015,-6c5,1 43,5 43,5c0,0 46,11 46,11c0,0 40,15 40,15c0,0 21,20 21,20c0,0 18,30 18,30c0,0 10,40.999985 10,36.999985c0,-4 -2,46 -2,46c0,0 3,14 -5,16c-8,2 -26,3 -26,3c0,0 -35,-9 -35,-9c0,0 -65,-14 -65,-14c0,0 -76.000015,-17 -76.000015,-17c0,0 -74,-24 -74,-24c0,0 -23,-14.999985 -23,-14.999985c0,0 -1,-11 2,-19z" stroke-width="5" stroke="#000000" fill="#c96910"/>
  <path transform="rotate(13.5963 317.528 262.167)" id="svg_25" d="m276.711761,236.283859c-5.388,0 -4.48999,50.417984 0.539001,51.51503c5.029999,1.097992 81.19104,-1.838013 82.627991,-0.741028c1.437012,1.096985 3.952026,-47.067001 0,-48.934982c-3.951965,-1.869019 -77.777985,-1.83902 -83.166992,-1.83902z" stroke-linecap="null" stroke-linejoin="null" stroke-dasharray="null" stroke-width="5" stroke="#000000" fill="#ff0000"/>
  <path id="svg_26" d="m286.113922,228.291687c0.452972,0.34726 9.370331,22.338806 9.370331,22.338806c0,0 12.181458,-15.540039 12.181458,-15.540039c0,0 7.496155,19.425049 7.121399,18.919983c-0.374817,-0.505035 11.619202,-13.092468 11.619202,-13.092468c0,0 4.685181,19.424988 4.685181,19.424988c0,0 12.181458,-15.540009 12.181458,-15.540009c0,0 0.936951,18.453766 0.936951,18.453766c0,0 17.80365,-13.597504 17.428833,-14.102539c-0.374817,-0.505035 -75.524811,-20.862488 -75.524811,-20.862488z" stroke-linecap="null" stroke-linejoin="null" stroke-dasharray="null" stroke-width="5" stroke="#000000" fill="#ffffff"/>
  <path transform="rotate(-177.263 312.863 279.097)" id="svg_27" d="m275.064514,265.029663c0.45401,0.279175 9.378998,17.974457 9.378998,17.974457c0,0 12.192017,-12.504425 12.192017,-12.504425c0,0 7.502991,15.630554 7.126984,15.224548c-0.375,-0.40683 11.629944,-10.534943 11.629944,-10.534943c0,0 4.689026,15.629669 4.689026,15.629669c0,0 12.192017,-12.503571 12.192017,-12.503571c0,0 0.937988,14.848328 0.937988,14.848328c0,0 17.81897,-10.940918 17.44397,-11.347748c-0.375,-0.405975 -75.590942,-16.786316 -75.590942,-16.786316z" stroke-linecap="null" stroke-linejoin="null" stroke-dasharray="null" stroke-width="5" stroke="#000000" fill="#ffffff"/>
  <ellipse ry="7.492506" rx="6.493506" id="svg_30" cy="197.822167" cx="299.60044" stroke-linecap="null" stroke-linejoin="null" stroke-dasharray="null" stroke-width="5" stroke="#000000" fill="#000000"/>
  <ellipse id="svg_32" cy="288.231754" cx="513.886159" stroke-linecap="null" stroke-linejoin="null" stroke-dasharray="null" stroke-width="5" stroke="#000000" fill="#000000"/>
  <ellipse id="svg_33" cy="320.199787" cx="505.894151" stroke-linecap="null" stroke-linejoin="null" stroke-dasharray="null" stroke-width="5" stroke="#000000" fill="#000000"/>
  <ellipse id="svg_40" ry="7.492506" rx="6.493506" cy="213.306666" cx="360.039992" stroke-linecap="null" stroke-linejoin="null" stroke-dasharray="null" stroke-width="5" stroke="#000000" fill="#000000"/>
  <ellipse id="svg_39" ry="4.495504" rx="3.996005" cy="210.309693" cx="361.039003" stroke-linecap="null" stroke-linejoin="null" stroke-dasharray="null" stroke-width="5" stroke="#000000" fill="#ffffff"/>
  <ellipse ry="4.495504" rx="3.996005" id="svg_38" cy="194.825158" cx="301.098937" stroke-linecap="null" stroke-linejoin="null" stroke-dasharray="null" stroke-width="5" stroke="#000000" fill="#ffffff"/>
  <ellipse id="svg_41" cy="395.124865" cx="265.1349" stroke-linecap="null" stroke-linejoin="null" stroke-dasharray="null" stroke-width="5" stroke="#000000" fill="#7f3f00"/>
  <ellipse ry="10.989011" rx="8.991009" id="svg_50" cy="223.29669" cx="193.206828" stroke-linecap="null" stroke-linejoin="null" stroke-dasharray="null" stroke-width="0" fill="#b7600e"/>
  <ellipse id="svg_51" cy="406.113876" cx="115.284744" stroke-linecap="null" stroke-linejoin="null" stroke-dasharray="null" stroke-width="0" fill="#b7600e"/>
  <ellipse ry="3.996004" rx="3.996004" id="svg_52" cy="237.282698" cx="198.201825" stroke-linecap="null" stroke-linejoin="null" stroke-dasharray="null" stroke-width="0" fill="#b7600e"/>
  <ellipse id="svg_53" cy="393.126863" cx="66.333693" stroke-linecap="null" stroke-linejoin="null" stroke-dasharray="null" stroke-width="0" fill="#b7600e"/>
  <ellipse id="svg_61" cy="389.130859" cx="50.349677" stroke-linecap="null" stroke-linejoin="null" stroke-dasharray="null" stroke-width="5" fill="#c96910"/>
  <ellipse ry="7.992008" rx="5.994006" id="svg_62" cy="174.34563" cx="326.073962" stroke-linecap="null" stroke-linejoin="null" stroke-dasharray="null" stroke-width="0" fill="#b7600e"/>
  <ellipse id="svg_63" cy="357.162825" cx="216.183849" stroke-linecap="null" stroke-linejoin="null" stroke-dasharray="null" stroke-width="0" fill="#b7600e"/>
  <ellipse ry="3.996004" rx="3.996004" id="svg_64" cy="181.338647" cx="335.06497" stroke-linecap="null" stroke-linejoin="null" stroke-dasharray="null" stroke-width="0" fill="#b7600e"/>
  <ellipse ry="5.994006" rx="6.993007" id="svg_65" cy="303.216777" cx="366.034011" stroke-linecap="null" stroke-linejoin="null" stroke-dasharray="null" stroke-width="0" fill="#b7600e"/>
  <ellipse id="svg_66" cy="456.063928" cx="285.114921" stroke-linecap="null" stroke-linejoin="null" stroke-dasharray="null" stroke-width="0" fill="#b7600e"/>
  <ellipse ry="2.997003" rx="3.996004" id="svg_67" cy="296.223761" cx="376.024021" stroke-linecap="null" stroke-linejoin="null" stroke-dasharray="null" stroke-width="0" fill="#b7600e"/>
  <ellipse id="svg_70" cy="456.063928" cx="218.181851" stroke-linecap="null" stroke-linejoin="null" stroke-dasharray="null" stroke-width="0" fill="#c96910"/>
  <ellipse id="svg_71" cy="456.063928" cx="222.177856" stroke-linecap="null" stroke-linejoin="null" stroke-dasharray="null" stroke-width="0" fill="#c96910"/>
  <ellipse id="svg_72" cy="386.133856" cx="43.35667" stroke-linecap="null" stroke-linejoin="null" stroke-dasharray="null" stroke-width="0" fill="#c96910"/>
  <ellipse id="svg_73" cy="386.133856" cx="49.350676" stroke-linecap="null" stroke-linejoin="null" stroke-dasharray="null" stroke-width="0" fill="#c96910"/>
  <ellipse ry="12.987014" rx="10.989011" id="svg_74" cy="273.246736" cx="430.969078" stroke-linecap="null" stroke-linejoin="null" stroke-dasharray="null" stroke-width="0" fill="#b7600e"/>
  <ellipse id="svg_75" cy="450.069922" cx="285.114921" stroke-linecap="null" stroke-linejoin="null" stroke-dasharray="null" stroke-width="0" fill="#b7600e"/>
  <ellipse ry="5.994006" rx="4.995005" id="svg_76" cy="294.225757" cx="435.964076" stroke-linecap="null" stroke-linejoin="null" stroke-dasharray="null" stroke-width="0" fill="#b7600e"/>
  <ellipse ry="0.999001" id="svg_77" cy="434.085906" cx="470.929114" stroke-linecap="null" stroke-linejoin="null" stroke-dasharray="null" stroke-width="0" fill="#b7600e"/>
  <ellipse ry="4.495506" rx="3.996004" id="svg_78" cy="289.730255" cx="421.978066" stroke-linecap="null" stroke-linejoin="null" stroke-dasharray="null" stroke-width="0" fill="#b7600e"/>
  <path id="svg_11" d="m266.053802,149.688019c-1.998016,-0.998993 -1,-10.994995 -1.200012,-11.255005c-0.200012,-0.259979 8.696014,-7.235992 8.496002,-7.495972c-0.200012,-0.26001 13.192993,-0.740021 12.993011,-0.999023c-0.199005,-0.26001 -1.796997,-6.737007 2.198975,-6.737007c3.996002,0 10.997009,3.49601 14.792999,-0.76001c3.796021,-4.255577 7.696014,-9.734863 7.696014,-9.734863c0,0 6.497009,-0.500214 9.295013,-1.759117c2.796997,-1.258919 6.696991,8.25589 6.496979,7.996002c-0.199982,-0.259895 5.199005,7.257019 7.996002,6.997009c2.796997,-0.260017 9.196014,-5.73761 8.996002,-5.997498c-0.200012,-0.259926 7.695984,5.7575 7.695984,5.7575c0,0 4,4.996986 6.796997,4.737007c2.796997,-0.26001 8.195007,-4.238007 8.195007,-4.238007c0,0 1.502014,-3.998024 5.497986,-4.997108c3.996033,-0.999016 5.497009,6.996101 5.297058,6.737099c-0.200012,-0.26001 9.194946,0.259003 8.995972,0c-0.200012,-0.26001 11.19397,0.761993 9.994995,5.497009c-1.198975,4.734985 -1.799988,6.755981 -1.999023,6.496979c-0.199951,-0.259979 -6.796997,5.257019 -6.996948,4.997009c-0.200012,-0.26001 -11.294006,-3.738007 -11.494019,-3.997986c-0.200012,-0.26001 -8.296021,5.256989 -8.496033,4.997986c-0.199951,-0.26001 -5.296997,6.256012 -5.496948,5.997009c-0.200012,-0.26001 -3.299011,5.256989 -3.498047,4.997009c-0.199951,-0.26001 -17.291992,-2.739014 -17.491974,-2.999023c-0.200012,-0.258972 -16.291992,-4.237 -16.490997,-4.497009c-0.200012,-0.259979 -18.791016,0.26001 -18.990997,0c-0.200012,-0.259979 -16.792023,-1.23999 -16.990997,-1.498993c-0.200012,-0.259979 -12.294006,1.759003 -12.494019,1.498993c-0.199982,-0.259979 -7.796997,1.259033 -9.794983,0.26001z" stroke-linecap="null" stroke-linejoin="null" stroke-dasharray="null" stroke-width="5" stroke="#000000" fill="#2ead2e"/>
  <path d="m121.278748,347.172821c0,0.998993 0,2.997009 0,3.996002c0,0.998993 0,2.997009 0,4.994995c0,1.998016 0,2.997009 0,4.995026c0,0.998993 0,1.997986 0,4.994995c0,1.997986 0,2.997009 0,3.996002c0,1.997986 0,2.997009 0,3.996002c0,1.998016 0,2.997009 0,3.996002c0,1.998016 0,2.997009 0,4.994995c0,0.999023 0,1.998016 0,2.997009c0,0.998993 0,1.998016 0,2.997009l0,0.998993l0,0.999023" id="svg_82" stroke-linecap="null" stroke-linejoin="null" stroke-dasharray="null" stroke-width="0" stroke="#000000" fill="none"/>
  <path d="m161.238785,344.175812c0,0.998993 0,6.993011 0,8.990997c0,1.998016 0,3.996002 0,5.994019c0,1.998016 0,3.996002 0,6.993011c0,1.997986 0,15.984009 0,17.982025c0,0.998993 0,2.996979 0,4.994995c0,1.998016 0,2.997009 0,3.996002c0,0.998993 0,1.998016 0,2.997009l0,0.998993" id="svg_83" stroke-linecap="null" stroke-linejoin="null" stroke-dasharray="null" stroke-width="0" stroke="#000000" fill="none"/>
  <path d="m165.234802,330.189789c0,0.999023 0,1.998016 0,2.997009c0,0.998993 0,1.998016 0,3.996002c0,1.998016 0,4.994995 0,7.992004c0,1.998016 0,3.996002 0,5.994019c0,2.997009 0,6.993011 0,9.990021c0,1.997986 0,4.994995 0,6.992981c0,1.998016 0,3.996002 0,5.994019c0,0.998993 0,1.998016 0,3.996002c0,0.998993 0,1.998016 0,2.997009c0,0.998993 0,1.997986 0,2.997009c0,0.998993 0,1.997986 0,2.996979c0,0.999023 0,1.998016 0,3.996033l0,0.998993l0,0.998993" id="svg_84" stroke-linecap="null" stroke-linejoin="null" stroke-dasharray="null" stroke-width="0" stroke="#000000" fill="none"/>
  <path d="m180.219818,293.226746c0.998993,0 0.616684,1.075073 0.998993,1.998016c0.540665,1.305267 0.616714,2.074066 0.999008,2.997009c0.540649,1.305237 -0.413818,2.583191 0.998993,3.996002c0.706406,0.70639 0.616714,1.075043 0.999008,1.997986c0.540649,1.305267 0.998993,1.998016 0.998993,2.997009c0,0.998993 0,1.998016 0,2.997009c0,0.998993 0,1.997986 0,4.994995c0,1.998016 -0.998993,3.996002 -0.998993,6.993011c0,2.997009 -0.474976,6.855103 -1.998001,12.98703c-1.464798,5.897491 -2.490967,10.867676 -2.997009,13.985992c-0.640091,3.944397 -1.491959,7.870667 -1.998001,10.989014c-0.320053,1.972229 0,3.996002 0,4.995026c0,1.997986 -0.999008,2.996979 -0.999008,3.996002c0,1.997986 0,2.996979 0,3.996002c0,0.998993 0,1.997986 0,2.997009c0,0.998993 0,1.997986 0.999008,2.996979c0.999023,0.999023 1.075058,1.615723 1.998001,1.998016c1.305252,0.540649 1.075058,1.615692 1.998001,1.997986c1.305283,0.54068 1.615692,1.075073 1.998001,1.998016c0.540665,1.305267 0.292587,2.290588 0.999008,2.997009c0.70639,0.70639 0.998993,0.998993 0.998993,1.997986l0.999008,0" id="svg_85" stroke-linecap="null" stroke-linejoin="null" stroke-dasharray="null" stroke-width="0" stroke="#000000" fill="none"/>
  <path d="m160.239792,322.197784c0,-0.998993 0.998993,-0.998993 1.998001,-0.998993c1.998001,0 2.997009,0 3.996002,0c0.999008,0 1.998001,0 3.996002,0c0.999008,0 1.998001,0 2.997009,0c0.998993,0 2.996994,0 3.996002,0c0.999008,0 3.996002,0 5.994003,0c1.998001,0 3.996002,0 5.994003,0c2.997009,0 5.994019,0 6.993011,0c0.999008,0 4.288605,-0.292603 4.99501,-0.998993c0.706421,-0.706421 1.075043,-0.61673 1.998001,-0.999023c1.305252,-0.540649 1.998001,-0.998993 1.998001,-1.997986l0.998993,-0.998993l0,-0.999023" id="svg_87" stroke-linecap="null" stroke-linejoin="null" stroke-dasharray="null" stroke-width="0" stroke="#000000" fill="none"/>
  <path d="m217.182846,342.177795c0,-0.998993 -0.998993,-1.997986 -1.998001,-1.997986c-0.998993,0 -1.998001,0 -2.996994,0c-0.999008,0 -1.998001,0 -2.997009,0c-0.999008,0 -1.998001,0 -3.996002,0c-0.999008,0 -0.692749,1.457336 -1.998001,1.997986c-0.922958,0.382294 -1.29158,0.292603 -1.998001,0.999023c-0.706406,0.70639 -2.290604,0.292603 -2.997009,0.998993c-0.70639,0.70639 -0.292603,2.290619 -0.998993,2.997009c-0.706406,0.70639 -1.457352,0.692749 -1.998001,1.997986c-0.382309,0.922974 -0.999008,0.999023 -0.999008,1.998016c0,1.997986 0,2.997009 0,3.996002c0,0.998993 0,1.997986 0,2.997009c0,0.998993 0,1.997986 0,2.997009c0,0.998993 0,1.997986 0,2.996979c0,0.999023 0.292603,1.291626 0.999008,1.998016c0.70639,0.70639 0.692749,1.457336 1.998001,1.997986c0.922943,0.382294 1.998001,0 2.996994,0c0.999008,0 1.998001,0 2.997009,0c0.998993,0 2.074051,0.382294 2.996994,0c1.305252,-0.540649 1.691757,-2.456329 2.997009,-2.996979c0.922958,-0.382294 0.999008,-0.999023 1.998001,-0.999023c0.999008,0 1.457352,-0.692749 1.998001,-1.997986c0.382294,-0.922943 1.998001,-1.998016 1.998001,-2.997009c0,-0.998993 0.616699,-1.075043 0.999008,-1.998016c0.540649,-1.305237 0.616699,-2.074036 0.998993,-2.996979c0.540665,-1.305267 1.457352,-1.691772 1.998001,-2.997009c0.382294,-0.922943 0.999008,-1.998016 0.999008,-2.997009c0,-0.998993 0,-1.997986 0,-2.997009c0,-0.998993 0,-1.997986 0,-0.998993c0,0.998993 0,1.998016 0,2.997009c0,0.998993 0,1.997986 0,2.997009c0,0.998993 0.292603,1.291595 0.998993,1.997986c0.70639,0.70639 0,1.998016 0,2.997009c0,0.998993 0,1.997986 0,2.997009c0,0.998993 0,1.997986 0,2.997009c0,0.998993 0,1.997986 0,2.996979l0.999008,0l0,0.999023" id="svg_88" stroke-linecap="null" stroke-linejoin="null" stroke-dasharray="null" stroke-width="0" stroke="#000000" fill="none"/>
  <path d="m230.169861,322.197784c0,0.998993 0,2.997009 0,3.996002c0,0.998993 0,2.997009 0,3.996002c0,0.999023 0,2.997009 0,3.996002c0,0.999023 0,1.998016 0,2.997009c0,0.998993 0,1.998016 0,2.997009c0,0.998993 0,1.997986 0,2.997009c0,0.998993 0,2.997009 0,3.996002c0,0.998993 0,1.997986 0,2.997009c0,1.997986 0,2.996979 0,3.996002c0,0.998993 0,2.996979 0,3.996002c0,0.998993 0,1.997986 0,2.997009c0,0.998993 0,1.997986 0,2.996979c0,0.999023 1.457352,0.69278 1.998001,1.998016c0.382294,0.922943 0,1.997986 0,2.997009c0,0.998993 0,1.997986 0,2.996979c0,0.999023 0,1.998016 0,2.997009c0,0.999023 0,1.998016 0,2.997009c0,0.998993 0,1.998016 0,2.997009c0,0.998993 0,1.997986 0,3.996002c0,0.998993 0,1.997986 0,2.997009l0,0.998993" id="svg_89" stroke-linecap="null" stroke-linejoin="null" stroke-dasharray="null" stroke-width="0" stroke="#000000" fill="none"/>
  <path d="m253.146881,336.183807c-0.998993,0 -1.615707,0.07605 -1.998001,0.998993c-0.540649,1.305237 -1.29158,1.291595 -1.998001,1.998016c-0.70639,0.70639 -0.292603,1.291595 -0.998993,1.997986c-0.706406,0.70639 -1.998001,0.998993 -1.998001,1.998016c0,0.998993 -0.999008,0.998993 -0.999008,1.997986c0,0.999023 -0.998993,0.999023 -0.998993,1.998016c0,0.998993 -1.457352,0.692749 -1.998001,1.997986c-0.382309,0.922974 -0.292603,1.291626 -0.999008,1.998016c-0.70639,0.70639 -0.616684,2.074036 -0.998993,2.997009c-0.540665,1.305267 -1.291611,1.291595 -1.998016,1.997986c-0.70639,0.70639 -0.292603,1.291626 -0.998993,1.998016c-0.70639,0.70639 -0.616699,2.074036 -0.999008,2.997009c-0.540649,1.305237 -1.291611,2.290588 -1.998001,2.996979c-0.70639,0.70639 -0.692749,2.538666 -1.998001,1.998016c-0.922943,-0.382294 -0.70639,-2.290619 0,-2.997009c0.706406,-0.70639 1.691757,0.458344 2.997009,0.998993c0.922943,0.382294 1.291595,0.292633 1.998001,0.999023c0.70639,0.70639 1.075043,0.616699 1.998001,0.998993c1.305252,0.540649 1.691727,2.456329 2.997009,2.997009c0.922943,0.382294 2.074051,0.616699 2.996994,0.998993c1.305252,0.540649 1.096786,1.822601 2.997009,2.997009c0.849792,0.525208 1.998001,0.998993 2.996994,1.997986c0.999008,0.999023 2.997009,0.999023 2.997009,1.998016l0.999008,0l0.998993,0l0.998993,0" id="svg_90" stroke-linecap="null" stroke-linejoin="null" stroke-dasharray="null" stroke-width="0" stroke="#000000" fill="none"/>
  <path d="m276.123901,341.178802c-0.998993,0 -2.074036,-0.382294 -2.996979,0c-1.305267,0.540649 -2.290619,0.292603 -2.997009,0.998993c-0.706421,0.706421 -0.292633,2.290619 -0.999023,2.997009c-0.70639,0.70639 -0.692749,1.457367 -1.997986,1.998016c-0.922943,0.382294 -0.616699,1.075043 -0.998993,1.997986c-0.54068,1.305298 -0.69278,2.45636 -1.998016,2.997009c-0.922943,0.382294 -0.616669,1.075043 -0.998993,1.998016c-0.540649,1.305237 -1.291595,1.291565 -1.998016,1.997986c-0.70639,0.70639 0,1.998016 0,2.997009c0,0.998993 0,1.998016 0,2.997009c0,0.998993 0,1.997986 0,2.997009c0,0.998993 0.999023,0.998993 0.999023,1.997986c0,0.998993 1.291595,1.291626 1.997986,1.998016c0.70639,0.70639 -0.306244,2.456329 0.998993,2.996979c0.922974,0.382324 1.0065,0.876953 1.998016,0.999023c4.088135,0.503265 4.288574,2.290588 4.994995,2.997009c0.706421,0.706421 2.290619,-0.70639 2.997009,0c0.70639,0.70639 0.998993,0.998993 1.998016,0.998993c0.998993,0 2.290588,0.70639 2.996979,0c0.70639,-0.70639 0.999023,-1.998016 1.998016,-1.998016c0.998993,0 1.075043,-0.616699 1.997986,-0.998993c1.305267,-0.540649 1.615692,-1.075043 1.998016,-1.998016c0.540649,-1.305237 0.616699,-2.074036 0.998993,-2.996979c0.54068,-1.305298 0.292633,-2.290619 0.999023,-2.997009c0.70639,-0.70639 0.998993,-0.998993 0.998993,-1.998016c0,-0.998993 0,-1.997986 0,-2.996979c0,-0.999023 0.382294,-2.074066 0,-2.997009c-0.540649,-1.305267 -0.998993,-1.998016 -0.998993,-2.997009c0,-0.998993 -0.999023,-0.998993 -0.999023,-1.998016c0,-0.998993 -0.292603,-1.291595 -0.998993,-1.997986c-0.70639,-0.70639 -0.616699,-2.074066 -0.998993,-2.997009c-0.54068,-1.305267 -1.291626,-1.291595 -1.998016,-1.997986c-0.706421,-0.706421 -1.291595,-1.291626 -1.997986,-1.998016c-0.70639,-0.70639 -0.999023,-0.998993 -1.998016,-1.998016l-0.998993,0l-0.998993,-0.998993l-0.999023,0" id="svg_91" stroke-linecap="null" stroke-linejoin="null" stroke-dasharray="null" stroke-width="0" stroke="#000000" fill="none"/>
  <path d="m300.099945,364.155823c0.998993,0 1.997986,0 2.997009,0c0.998993,0 2.074036,-0.382294 2.996979,0c1.305298,0.54068 1.998016,0.999023 2.997009,0.999023l0,0.998993" id="svg_92" stroke-linecap="null" stroke-linejoin="null" stroke-dasharray="null" stroke-width="0" stroke="#000000" fill="none"/>
  <path d="m351.048981,352.167816c0,-0.998993 -0.998993,-0.998993 -1.997986,-0.998993c-0.999023,0 -2.095795,0.823608 -3.996002,1.997986c-1.699615,1.050415 -1.691772,1.457367 -2.997009,1.998016c-0.922943,0.382294 -1.291595,0.292572 -1.998016,0.998993c-0.70639,0.70639 -0.292603,1.291626 -0.998993,1.998016c-0.70639,0.70639 -1.291595,1.291595 -1.997986,1.997986c-0.706421,0.706421 -0.70639,2.290619 0,2.997009c0.70639,0.70639 2.170898,1.850891 2.996979,2.997009c1.306152,1.812164 3.128876,2.752563 6.993011,4.994995c3.115387,1.807922 4.876648,3.187103 7.992004,4.995026c1.932068,1.121216 3.182831,2.68985 4.995026,3.996002c1.146118,0.82608 1.615692,2.074036 1.997986,2.996979c0.540649,1.305267 0.998993,1.998016 0.998993,2.997009c0,0.998993 0,1.998016 0,2.997009c0,1.998016 0.306244,3.455353 -0.998993,3.996002c-0.922943,0.382294 -0.998993,0.998993 -1.997986,0.998993c-0.999023,0 -1.998016,0 -2.997009,0c-0.998993,0 -1.998016,-0.998993 -2.997009,-1.997986c-0.998993,-0.998993 -0.998993,-1.998016 -0.998993,-2.997009c0,-0.998993 0,-1.998016 0,-2.997009c0,-0.998993 0,-1.997986 0,-2.997009c0,-0.998993 0.789032,-2.076355 1.997986,-4.994995c0.854858,-2.063782 2.45636,-2.690765 2.997009,-3.996002c0.764618,-1.845917 1.291595,-3.289581 1.998016,-3.996002c1.412811,-1.412811 0.998993,-2.997009 1.997986,-3.996002c0.998993,-0.998993 1.457336,-1.691742 1.998016,-2.997009c0.382294,-0.922943 1.997986,-1.997986 0.998993,-1.997986c-0.998993,0 -0.458344,1.691742 -0.998993,2.996979c-0.382324,0.922974 0,1.998016 0,2.997009c0,0.998993 0,1.998016 0,2.997009c0,0.998993 0.998993,0.998993 1.997986,0.998993c0.999023,0 1.457367,-0.692749 1.998016,-1.997986c0.382324,-0.922974 0.998993,-0.999023 0.998993,-1.998016c0,-0.998993 0.458344,-0.306244 0.998993,0.998993c0.382324,0.922974 -0.306244,2.45636 0.999023,2.997009c0.922943,0.382294 2.074036,0.382294 2.996979,0c1.305267,-0.540649 1.457367,-1.691742 1.998016,-2.997009c0.382294,-0.922943 -0.922943,-2.614685 0,-2.996979c1.305237,-0.540649 1.457336,1.691742 1.997986,2.996979c0.382324,0.922974 -0.306244,2.45636 0.999023,2.997009c0.922943,0.382294 1.997986,0 1.997986,-0.998993c0,-0.998993 0.292603,-1.291595 0.999023,-1.998016c0.70639,-0.70639 1.997986,-0.998993 1.997986,-1.997986c0,-0.998993 0,-1.998016 -0.998993,-1.998016c-0.998993,0 -0.922943,0.61673 0,0.999023c1.305237,0.540649 1.291595,2.290588 1.997986,2.996979c0.706421,0.706421 0.999023,0.999023 0.999023,1.998016c0,0.998993 -0.706421,2.290588 0,2.997009c0.70639,0.70639 2.456329,0.306244 2.996979,-0.999023c0.382294,-0.922943 0.61673,-1.075043 0.999023,-1.997986c0.540649,-1.305237 1.291595,-2.704407 1.997986,-1.998016c0.706421,0.706421 0,1.998016 0.998993,2.997009c0.999023,0.998993 1.615692,1.075043 1.998016,1.998016c0.540649,1.305237 1.291626,0.70639 1.998016,0c0.70639,-0.70639 0.998993,-0.999023 0.998993,-1.998016c0,-0.998993 0,-1.997986 0,-2.997009c0,-0.998993 -1.291595,-1.291565 -1.998016,-1.997986c-0.70639,-0.70639 -0.998993,-0.998993 -1.997986,-0.998993c-0.999023,0 -1.998016,0 -1.998016,0.998993c0,0.998993 -1.457336,0.692749 -1.997986,1.997986c-0.382324,0.922974 1.075043,1.381317 1.997986,0.999023c1.305267,-0.54068 2.074066,-0.61673 2.997009,-0.999023c1.305237,-0.540649 0.998993,-1.997986 1.998016,-1.997986c0.998993,0 2.290588,-1.705383 2.996979,-0.998993c0.70639,0.70639 0,1.997986 0,2.996979c0,0.999023 1.291626,1.291626 1.998016,1.998016c0.70639,0.70639 0.998993,0.998993 0.998993,0c0,-0.998993 1.457336,-2.690735 1.998016,-3.996002c0.382294,-0.922943 0.998993,-1.998016 1.997986,-2.997009c0.998993,-0.998993 2.45636,-1.305237 2.997009,0c0.382294,0.922943 0.458344,1.691772 0.998993,2.997009c0.382294,0.922943 0.999023,1.997986 0.999023,2.997009c0,0.998993 0.692749,1.457336 1.997986,1.997986c0.922943,0.382294 1.998016,0 2.997009,0c0.998993,0 1.997986,0 2.997009,0c0.998993,0 1.457336,-0.692749 1.997986,-1.997986c0.382324,-0.922974 0.70639,-2.290619 0,-2.997009c-0.70639,-0.70639 -1.291565,-1.291595 -1.997986,-1.998016c-0.706421,-0.706421 -1.998016,-0.998993 -2.997009,-0.998993c-0.998993,0 -1.457336,0.692719 -1.998016,1.998016c-0.382294,0.922943 0,1.997986 0,2.996979c0,0.999023 1.075073,1.615723 1.998016,1.998016c1.305237,0.540649 2.290588,1.705414 2.997009,0.998993c0.70639,-0.70639 0.998993,-0.998993 0.998993,-1.997986c0,-0.999023 0.07605,-2.38031 0.998993,-1.998016c1.305237,0.540649 0.998993,1.998016 1.998016,1.998016l0,0.998993l0.998993,0.998993l0,0.998993" id="svg_93" stroke-linecap="null" stroke-linejoin="null" stroke-dasharray="null" stroke-width="0" stroke="#000000" fill="none"/>
  <path d="m429.970062,356.163818c0,1.075867 1.332031,2.151703 1.332031,3.227539c0,1.075867 0.611115,1.821899 1.332001,3.227539c0.509705,0.993958 0,2.151733 0,3.22757c0,1.075836 1.33197,1.075836 1.33197,2.151672l0,1.075867l0,1.075836" id="svg_94" stroke-linecap="null" stroke-linejoin="null" stroke-dasharray="null" stroke-width="0" stroke="#000000" fill="none"/>
  <path d="m437.962067,355.164825c0.999023,0 0.292633,1.291595 0.999023,1.997986c0.70639,0.70639 0.616699,1.075073 0.998993,1.998016c0.540649,1.305237 0.998993,1.998016 0.998993,2.997009c0,0.998993 0,1.997986 0,2.997009l0,0.998993l0,0.998993" id="svg_95" stroke-linecap="null" stroke-linejoin="null" stroke-dasharray="null" stroke-width="0" stroke="#000000" fill="none"/>
  <path d="m424.975067,383.136841c0.998993,0 1.998016,-0.998993 2.997009,-0.998993c0.998993,0 3.023743,0.229523 3.996002,0c2.174072,-0.513214 4.994995,-1.997986 7.992004,-1.997986c1.998016,0 4.022736,0.229523 4.994995,0c2.174103,-0.513245 2.290619,-1.291626 2.997009,-1.998016c0.70639,-0.70639 2.290619,0.70639 2.997009,0c0.70639,-0.70639 1.291595,-0.292603 1.997986,-0.998993c0.70639,-0.70639 0.999023,-0.998993 1.998016,-0.998993l0.998993,-0.999023l0.999023,0" id="svg_96" stroke-linecap="null" stroke-linejoin="null" stroke-dasharray="null" stroke-width="0" stroke="#000000" fill="none"/>
 </g>
</svg>